<?xml version="1.0" encoding="utf-8"?>
<!-- Generator: Adobe Illustrator 16.0.4, SVG Export Plug-In . SVG Version: 6.00 Build 0)  -->
<!DOCTYPE svg PUBLIC "-//W3C//DTD SVG 1.1//EN" "http://www.w3.org/Graphics/SVG/1.1/DTD/svg11.dtd">
<svg version="1.1" id="DB" xmlns="http://www.w3.org/2000/svg" xmlns:xlink="http://www.w3.org/1999/xlink" x="0px" y="0px"
	 width="117.688px" height="117.521px" viewBox="0 0 117.688 117.521" enable-background="new 0 0 117.688 117.521"
	 xml:space="preserve">
<linearGradient id="SVGID_1_" gradientUnits="userSpaceOnUse" x1="0.2979" y1="58.7573" x2="117.4082" y2="58.7573">
	<stop  offset="0" style="stop-color:#464291"/>
	<stop  offset="0.5393" style="stop-color:#393A73"/>
	<stop  offset="1" style="stop-color:#0B001A"/>
</linearGradient>
<circle fill="url(#SVGID_1_)" cx="58.853" cy="58.757" r="58.555"/>
<path fill="#FFFFFF" d="M87.783,63.944c0-3.703-0.77-6.582-2.313-8.641c-1.543-2.16-3.652-3.238-6.328-3.238
	c-2.879,0-5.09,1.027-6.633,3.086c-1.543,2.16-2.316,5.09-2.316,8.793c0,4.32,0.719,7.461,2.16,9.414
	c1.543,2.16,3.703,3.238,6.481,3.238c2.878,0,5.093-1.078,6.636-3.238S87.783,68.061,87.783,63.944z M70.193,36.788v12.343
	c1.133-1.953,2.777-3.547,4.937-4.781c1.852-1.027,4.114-1.543,6.789-1.543c4.836,0,8.797,2.004,11.883,6.016
	c3.086,4.011,4.629,9.207,4.629,15.585s-1.543,11.57-4.629,15.582c-1.543,1.953-3.625,3.371-6.25,4.242
	c-2.625,0.875-5.222,1.312-7.793,1.312c-4.937,0-9.515-1.285-13.73-3.855c-4.219-2.57-6.328-7.508-6.328-14.812V31.541h5.246
	c1.441,0,2.676,0.516,3.703,1.543C69.677,34.116,70.193,35.35,70.193,36.788z"/>
<path fill="#FFFFFF" d="M31.326,73.569c1.543,2.16,3.754,3.242,6.633,3.242c2.777,0,4.937-1.082,6.48-3.242
	c1.441-1.953,2.16-5.09,2.16-9.41c0-3.703-0.769-6.633-2.312-8.792c-1.543-2.059-3.754-3.086-6.637-3.086
	c-2.672,0-4.781,1.078-6.324,3.238c-1.543,2.059-2.317,4.938-2.317,8.641C29.013,68.272,29.783,71.409,31.326,73.569z
	 M48.142,33.299c1.031-1.027,2.266-1.543,3.703-1.543h5.246v35.333c0,7.305-2.105,12.242-6.324,14.812
	c-4.219,2.574-8.797,3.859-13.734,3.859c-2.571,0-5.168-0.438-7.789-1.312c-2.625-0.875-4.707-2.289-6.25-4.242
	c-3.086-4.012-4.629-9.207-4.629-15.586c0-6.375,1.543-11.571,4.629-15.582c3.086-4.012,7.047-6.016,11.879-6.016
	c2.675,0,4.937,0.516,6.789,1.543c2.16,1.234,3.808,2.828,4.937,4.781V37.002C46.603,35.565,47.115,34.331,48.142,33.299z"/>
</svg>
